<?xml version="1.0" encoding="utf-8"?>
<!-- Generator: Adobe Illustrator 18.1.1, SVG Export Plug-In . SVG Version: 6.00 Build 0)  -->
<svg version="1.1" id="Layer_1" xmlns="http://www.w3.org/2000/svg" xmlns:xlink="http://www.w3.org/1999/xlink" x="0px" y="0px"
	 viewBox="0 0 152.7 91.8" enable-background="new 0 0 152.7 91.8" xml:space="preserve">
<path fill-rule="evenodd" clip-rule="evenodd" fill="#F8F9FA" d="M14.8,78.7c-0.1-1.5-0.5-4.2-5.1-4.2c-3.2,0-4.5,2-4.5,4.1
	c0,2.3,1.9,2.9,2.8,3.1l2.7,0.6c2.2,0.5,2.8,1,2.8,2.3c0,1.9-2.2,2.2-3.4,2.2c-1.7,0-3.6-0.7-3.6-3.1H4.8C4.8,84.9,5,86,6.1,87
	c0.6,0.5,1.5,1.3,4,1.3c2.3,0,5.2-0.9,5.2-4c0-2.1-1.3-3.1-3-3.5L8.5,80c-0.8-0.2-1.6-0.6-1.6-1.7c0-2,1.9-2.3,3-2.3
	c1.5,0,3.2,0.6,3.3,2.7H14.8L14.8,78.7z M33.9,81.4c0,3.1-1.7,5.4-4.6,5.4c-2.9,0-4.6-2.3-4.6-5.4s1.7-5.4,4.6-5.4
	C32.1,76,33.9,78.3,33.9,81.4L33.9,81.4z M35.7,81.4c0-2.8-1.5-6.9-6.4-6.9c-4.9,0-6.4,4.1-6.4,6.9s1.5,6.9,6.4,6.9
	C34.2,88.3,35.7,84.2,35.7,81.4L35.7,81.4z M45.9,82h6.5v-1.6h-6.5v-4h7.3v-1.6h-9.1V88h1.8V82L45.9,82z M60.4,76.4h4.5V88h1.8V76.4
	h4.5v-1.6H60.4V76.4L60.4,76.4z M86.1,77.1L86.1,77.1l3,10.9H91l3.5-13.2h-2L90,85.5h0L87,74.8h-1.9l-3,10.7h0l-2.5-10.7h-1.9
	L81.2,88H83L86.1,77.1L86.1,77.1z M108.6,84.1L110,88h1.9l-4.8-13.2h-2l-5,13.2h1.8l1.4-3.8H108.6L108.6,84.1z M103.9,82.6l2.1-5.8
	h0l1.9,5.8H103.9L103.9,82.6z M121.6,82.3h4.3c2.1,0,2.3,1.3,2.3,2.3c0,0.5,0.1,2.5,0.3,3.3h2.2v-0.3c-0.5-0.3-0.6-0.6-0.7-1.3
	L130,84c-0.1-1.8-0.8-2.2-1.6-2.5c0.8-0.5,1.8-1.2,1.8-3.2c0-2.8-2.2-3.5-4.3-3.5h-6.1V88h1.8V82.3L121.6,82.3z M121.6,76.3h4.4
	c0.9,0,2.4,0.2,2.4,2.2c0,1.9-1.4,2.3-2.7,2.3h-4.1V76.3L121.6,76.3z M148.8,86.4h-7.9V82h7.2v-1.6h-7.2v-4h7.8v-1.6h-9.6V88h9.7
	V86.4z"/>
<path fill-rule="evenodd" clip-rule="evenodd" fill="#F8F9FA" d="M28.6,24.9H10.3c-3.1,0-5.5,2.5-5.5,5.5v37.1h6.5
	c0.5,0,0.9-0.4,0.9-1V32.8c0-0.5,0.4-0.9,0.9-0.9h15.4c2.8,0,5,2.3,5,5v29.7c0,0.5,0.4,1,0.9,1H41V37.3C41,30.4,35.5,24.9,28.6,24.9
	L28.6,24.9z M70.1,68.2c6.9,0,12.5-5.5,12.5-12.4V36.8c0-6.8-5.6-12.4-12.5-12.4H58.9c-6.9,0-12.4,5.6-12.4,12.4v18.9
	c0,6.9,5.5,12.4,12.4,12.4H70.1L70.1,68.2z M58.9,31.4h11.2c2.8,0,5.1,2.3,5.1,5v19.6c0,2.8-2.3,5.1-5.1,5.1H58.9
	c-2.8,0-5-2.3-5-5.1V36.5C53.8,33.7,56.1,31.4,58.9,31.4L58.9,31.4z M101.3,24.9c-2.6,0-4.8,1.3-5.8,2.7v-1.9c0-0.5-0.4-0.8-0.9-0.8
	h-6.5v41.7c0,0.5,0.4,1,0.9,1h6.5V35.8c0.2-2,1.8-3.8,4.1-3.8h10.6c0.5,0,0.9-0.4,0.9-0.9v-6.1H101.3L101.3,24.9z M113.4,37.3v17.8
	c0,6.9,5.5,12.5,12.4,12.5h20.3c1.5,0,2.7-1.2,2.7-2.7V3.6h-6.5c-0.5,0-0.9,0.4-0.9,0.9v23.1c-1-1.4-3.2-2.7-5.9-2.7h-9.9
	C118.8,24.9,113.4,30.4,113.4,37.3L113.4,37.3z M120.8,37c0-2.8,2.2-5,5-5h11.5c2.1,0.3,3.9,2,4.1,4.4v23.3c0,0.5-0.4,0.9-0.9,0.9
	h-14.7c-2.8,0-5-2.2-5-5V37z"/>
</svg>
