<svg version="1.1" id="Layer_1" xmlns="http://www.w3.org/2000/svg" x="0" y="0" viewBox="0 0 110.6 42.1" xml:space="preserve"><g fill-rule="evenodd" clip-rule="evenodd" fill="#FFF"><path d="M25.2 32.7h-5.6V15.8c0-1.7-.9-2.6-2.6-2.6H5.9v28.9H.4V7.6h16.7c5.4 0 8.1 2.7 8.1 8.1v17z"/><path d="M10 17h5.6v16.9c0 1.7.9 2.6 2.6 2.6h11.1V7.6h5.6v34.5H18.1c-5.4 0-8.1-2.7-8.1-8.1V17z"/><g><path d="M47.7 35.2c0-.7-.2-2-2.4-2-1.5 0-2.1.9-2.1 1.9 0 1.1.9 1.4 1.3 1.5l1.3.3c1 .2 1.3.4 1.3 1.1 0 .9-1 1-1.6 1-.8 0-1.7-.3-1.7-1.4H43c0 .6.1 1.1.6 1.6.3.2.7.6 1.9.6 1.1 0 2.4-.4 2.4-1.9 0-1-.6-1.5-1.4-1.6l-1.8-.4c-.3-.2-.7-.4-.7-.9 0-.9.9-1.1 1.4-1.1.7 0 1.5.3 1.5 1.3h.8zm9 1.3c0 1.5-.8 2.5-2.1 2.5s-2.1-1.1-2.1-2.5c0-1.5.8-2.5 2.1-2.5s2.1 1 2.1 2.5zm.8 0c0-1.3-.7-3.2-3-3.2s-3 1.9-3 3.2c0 1.3.7 3.2 3 3.2s3-1.9 3-3.2zm4.8.3h3V36h-3v-1.9h3.4v-.7h-4.3v6.2h.8v-2.8h.1zm6.8-2.7h2.1v5.4h.8v-5.4h2.1v-.7h-5v.7zm12 .3l1.4 5.1h.9l1.6-6.2h-.9l-1.2 5-1.4-5h-.9l-1.4 5-1.2-5h-.9l1.6 6.2h.9l1.5-5.1zm10.6 3.4l.6 1.8h.9L91 33.4h-.9l-2.3 6.2h.9l.6-1.8h2.4zm-2.2-.8l1-2.7.9 2.7h-1.9zm8.3-.1h2c1 0 1.1.6 1.1 1.1 0 .2 0 1.2.1 1.5h1v-.1c-.3-.1-.3-.3-.3-.6l-.1-1.1c0-.9-.4-1-.7-1.2.4-.2.9-.6.9-1.5 0-1.3-1-1.7-2-1.7H97v6.2h.8v-2.6zm0-2.8h2.1c.4 0 1.1.1 1.1 1s-.6 1.1-1.3 1.1h-1.9v-2.1zm12.8 4.7h-3.7v-2.1h3.4V36h-3.4v-1.9h3.7v-.7H106v6.2h4.6v-.8zM54.2 10h-8.5c-1.4 0-2.6 1.2-2.6 2.6V30h3c.2 0 .4-.2.4-.4V13.7c0-.2.2-.4.4-.4h7.2c1.3 0 2.4 1.1 2.4 2.4v13.9c0 .2.2.4.4.4h3V15.8c.1-3.2-2.5-5.8-5.7-5.8zm19.5 20.3c3.2 0 5.9-2.6 5.9-5.8v-8.9c0-3.2-2.6-5.8-5.9-5.8h-5.3c-3.2 0-5.8 2.6-5.8 5.8v8.9c0 3.2 2.6 5.8 5.8 5.8h5.3zm-5.3-17.2h5.3c1.3 0 2.4 1.1 2.4 2.4v9.2c0 1.3-1.1 2.4-2.4 2.4h-5.3c-1.3 0-2.4-1.1-2.4-2.4v-9.2c0-1.4 1.1-2.4 2.4-2.4zM88.3 10c-1.2 0-2.2.6-2.7 1.3v-.9c0-.2-.2-.4-.4-.4h-3v19.6c0 .2.2.4.4.4h3V15.1c.1-1 .8-1.8 1.9-1.8h5c.2 0 .4-.2.4-.4V10h-4.6zm5.6 5.8v8.3c0 3.2 2.6 5.8 5.8 5.8h9.5c.7 0 1.3-.6 1.3-1.3V0h-3c-.2 0-.4.2-.4.4v10.8c-.5-.7-1.5-1.3-2.8-1.3h-4.6c-3.2.1-5.8 2.7-5.8 5.9zm3.5-.1c0-1.3 1-2.4 2.4-2.4h5.4c1 .1 1.8 1 1.9 2v10.9c0 .2-.2.4-.4.4h-6.9c-1.3 0-2.4-1-2.4-2.4v-8.5z"/></g></g></svg>